<svg width="1200" height="800" viewBox="0 0 1200 800" fill="none" xmlns="http://www.w3.org/2000/svg">
  <rect width="1200" height="800" rx="40" fill="#F8FAFC"/>
  <rect x="56" y="56" width="1088" height="688" rx="32" fill="url(#paint0_linear_120_1)"/>
  <rect x="112" y="124" width="420" height="240" rx="28" fill="white" fill-opacity="0.92"/>
  <rect x="562" y="124" width="526" height="132" rx="28" fill="#0F172A"/>
  <rect x="562" y="278" width="526" height="86" rx="28" fill="#E2E8F0"/>
  <rect x="112" y="402" width="976" height="104" rx="28" fill="#DCFCE7"/>
  <rect x="112" y="536" width="310" height="152" rx="28" fill="white" fill-opacity="0.88"/>
  <rect x="445" y="536" width="310" height="152" rx="28" fill="white" fill-opacity="0.88"/>
  <rect x="778" y="536" width="310" height="152" rx="28" fill="white" fill-opacity="0.88"/>
  <circle cx="166" cy="178" r="18" fill="#0F172A"/>
  <rect x="198" y="160" width="210" height="18" rx="9" fill="#CBD5E1"/>
  <rect x="166" y="214" width="300" height="16" rx="8" fill="#E2E8F0"/>
  <rect x="166" y="244" width="260" height="16" rx="8" fill="#E2E8F0"/>
  <rect x="166" y="288" width="152" height="40" rx="20" fill="#0F172A"/>
  <rect x="606" y="164" width="148" height="18" rx="9" fill="#94A3B8"/>
  <rect x="606" y="204" width="356" height="22" rx="11" fill="white" fill-opacity="0.92"/>
  <rect x="606" y="306" width="112" height="16" rx="8" fill="#475569"/>
  <rect x="738" y="306" width="132" height="16" rx="8" fill="#475569"/>
  <rect x="890" y="306" width="98" height="16" rx="8" fill="#475569"/>
  <rect x="156" y="432" width="200" height="16" rx="8" fill="#166534"/>
  <rect x="156" y="462" width="632" height="18" rx="9" fill="#4ADE80"/>
  <rect x="156" y="582" width="150" height="16" rx="8" fill="#CBD5E1"/>
  <rect x="156" y="616" width="110" height="44" rx="22" fill="#0F172A"/>
  <rect x="489" y="582" width="150" height="16" rx="8" fill="#CBD5E1"/>
  <rect x="489" y="616" width="186" height="44" rx="22" fill="#E2E8F0"/>
  <rect x="822" y="582" width="150" height="16" rx="8" fill="#CBD5E1"/>
  <rect x="822" y="616" width="152" height="44" rx="22" fill="#DCFCE7"/>
  <defs>
    <linearGradient id="paint0_linear_120_1" x1="600" y1="56" x2="600" y2="744" gradientUnits="userSpaceOnUse">
      <stop stop-color="#FFFFFF"/>
      <stop offset="1" stop-color="#E2E8F0"/>
    </linearGradient>
  </defs>
</svg>
